<svg width="444" height="137" viewBox="0 0 444 137" fill="none" xmlns="http://www.w3.org/2000/svg">
<circle r="10.123" transform="matrix(-0.999768 -0.0215482 -0.0215482 0.999768 10.67 80.0588)" fill="white"/>
<circle r="9.74807" transform="matrix(-0.999768 -0.0215482 -0.0215482 0.999768 186.106 13.7126)" fill="white"/>
<circle r="8.99822" transform="matrix(-0.999768 -0.0215482 -0.0215482 0.999768 90.5301 98.2805)" fill="white"/>
<circle r="6.18627" transform="matrix(-0.999768 -0.0215482 -0.0215482 0.999768 62.5199 14.6115)" fill="white"/>
<line x1="12.2678" y1="78.5683" x2="61.661" y2="14.0056" stroke="white" stroke-width="2.62448"/>
<line x1="89.6605" y1="97.2979" x2="185.236" y2="12.7299" stroke="white" stroke-width="2.62448"/>
<line x1="13.6223" y1="78.091" x2="90.8422" y2="97.006" stroke="white" stroke-width="2.62448"/>
<line x1="62.6917" y1="13.4908" x2="186.094" y2="12.4004" stroke="white" stroke-width="2.62448"/>
<path d="M85.2491 55.724L83.1031 55.6717C82.3355 55.6019 81.3585 55.567 80.1721 55.567H68.4481V103.248H41.7549V29.1879H83.3125L88.4941 29.0309H89.4362C92.0532 29.0309 93.3617 29.7985 93.3617 31.3338C93.3617 31.927 93.1174 32.4853 92.6289 33.0087C92.1753 33.4972 91.6694 33.7414 91.1111 33.7414C90.2039 33.7414 89.3315 33.6542 88.4941 33.4798C86.889 33.1308 84.7954 32.9564 82.2134 32.9564H68.4481V51.7986H78.9683C78.9683 51.7986 81.1317 51.7113 85.4584 51.5369C87.3426 51.5369 88.2847 52.2347 88.2847 53.6305C88.2847 55.0262 87.2728 55.724 85.2491 55.724ZM101.627 74.985C101.627 70.7978 102.377 66.9945 103.878 63.575C105.413 60.1206 107.507 57.1198 110.158 54.5726C115.881 49.1293 123.069 46.4076 131.722 46.4076C140.55 46.4076 147.738 49.2339 153.286 54.8866C158.59 60.2252 161.242 66.977 161.242 75.142C161.242 83.3418 158.52 90.1983 153.077 95.7114C147.459 101.399 140.271 104.243 131.513 104.243C122.964 104.243 115.881 101.539 110.263 96.1301C104.506 90.5472 101.627 83.4989 101.627 74.985ZM130.047 100.317C130.327 100.352 130.606 100.37 130.885 100.37H131.618C138.666 100.37 144.58 98.1888 149.361 93.8272C154.455 89.1166 157.002 82.9406 157.002 75.299C157.002 67.8319 154.612 61.778 149.832 57.1372C145.121 52.5313 139.032 50.2284 131.565 50.2284H130.78C130.536 50.2284 130.292 50.2458 130.047 50.2807V100.317ZM178.981 47.3497H201.487V63.7843C203.894 57.8176 206.476 53.4385 209.233 50.6471C212.024 47.8208 214.816 46.4076 217.607 46.4076C219.177 46.4076 220.416 46.8263 221.323 47.6638C222.265 48.4663 222.737 49.3735 222.737 50.3854C222.737 51.3973 222.597 52.1998 222.318 52.793C222.039 53.3862 221.672 53.8922 221.219 54.3109C220.277 55.1832 219.387 55.6194 218.549 55.6194C217.223 55.6194 216.246 55.4798 215.618 55.2006C214.537 54.7121 213.577 54.4679 212.74 54.4679C211.902 54.4679 210.838 55.1483 209.547 56.5091C208.256 57.8351 207.017 59.6844 205.831 62.0571C202.935 67.8493 201.487 74.1301 201.487 80.8993V103.248H178.981V47.3497ZM272.56 53.0547C271.687 52.4964 270.745 52.2173 269.733 52.2173C268.721 52.2173 267.675 52.4615 266.593 52.95C265.511 53.4036 264.377 54.0492 263.191 54.8866C260.713 56.6661 258.428 59.0389 256.334 62.0048V103.248H233.828V47.3497H256.334V56.2998C262.301 49.705 269.053 46.4076 276.59 46.4076C288.907 46.4076 295.066 52.3743 295.066 64.3077V103.248H272.56V53.0547ZM351.536 99.7939C347.069 102.76 342.115 104.243 336.671 104.243C329.448 104.243 323.656 102.428 319.295 98.7994C314.758 95.0659 312.49 89.8843 312.49 83.2546C312.49 77.3926 314.741 72.5773 319.242 68.8089C323.848 65.0056 329.902 63.1039 337.404 63.1039C342.429 63.1039 347.139 64.0635 351.536 65.9826V51.5892C348.36 50.682 345.551 50.2284 343.109 50.2284C340.701 50.2284 338.66 50.3331 336.985 50.5424C335.31 50.7518 333.723 51.0658 332.222 51.4845C328.977 52.3918 326.517 53.613 324.843 55.1483C323.865 56.0555 322.976 56.5091 322.173 56.5091C321.371 56.5091 320.76 56.3172 320.341 55.9334C319.923 55.5147 319.713 55.0611 319.713 54.5726C319.713 54.0841 319.8 53.6479 319.975 53.2641C320.149 52.8454 320.481 52.4266 320.969 52.0079C322.016 51.1007 323.761 50.1935 326.203 49.2863C331.263 47.3672 336.34 46.4076 341.434 46.4076C356.927 46.4076 366.819 50.1063 371.111 57.5036C372.995 60.7835 373.937 65.0928 373.937 70.4314V103.248H351.536V99.7939ZM351.536 70.0651C347.139 67.9366 342.76 66.8723 338.398 66.8723C337.701 66.8723 337.038 66.9247 336.41 67.0294V100.317C336.584 100.352 336.776 100.37 336.985 100.37C337.195 100.37 337.404 100.37 337.613 100.37C342.394 100.37 347.034 98.6773 351.536 95.2927V70.0651ZM388.85 104.243C388.361 104.243 387.907 104.033 387.489 103.615C387.07 103.231 386.861 102.76 386.861 102.202C386.861 101.085 387.489 100.056 388.745 99.1135C390.001 98.1714 390.908 97.3165 391.466 96.5488C391.466 96.5488 396.09 90.8787 405.336 79.5385L386.076 47.3497H409.89L420.986 65.8256C427.441 57.521 430.913 52.9849 431.402 52.2173C432.344 50.7518 432.972 49.6178 433.286 48.8152C433.949 47.2101 434.873 46.4076 436.06 46.4076C436.618 46.4076 437.107 46.5995 437.525 46.9833C437.979 47.3323 438.206 47.7684 438.206 48.2918C438.206 48.8152 438.101 49.3386 437.892 49.862C437.717 50.3854 437.403 51.0484 436.95 51.8509C436.042 53.3862 434.455 55.6019 432.187 58.498L423.341 69.751L443.492 103.248H419.573L407.639 83.3593L394.869 99.4275C392.67 102.184 391.1 103.737 390.158 104.086C389.809 104.19 389.373 104.243 388.85 104.243Z" fill="#023859"/>
<line x1="137.214" y1="55.2535" x2="185.161" y2="12.6166" stroke="white" stroke-width="2.62448"/>
<path d="M30.8879 82.3414L90.7904 96.775" stroke="white" stroke-width="2.62448"/>
<circle r="10.123" transform="matrix(-0.999768 -0.0215482 -0.0215482 0.999768 10.4561 79.8388)" fill="white"/>
</svg>
